name rise45.9887peak57.8056fall74.9286.mot
datacolumns 19
datarows 30
range 5.91998000000000 5.96832500000000
endheader
time	ground_force1_vx	ground_force1_vy	ground_force1_vz	ground_force1_px	ground_force1_py	ground_force1_pz	ground_force2_vx	ground_force2_vy	ground_force2_vz	ground_force2_px	ground_force2_py	ground_force2_pz	ground_torque1_x	ground_torque1_y	ground_torque1_z	ground_torque2_x	ground_torque2_y	ground_torque2_z	
5.91998000000000	12.51603000000000	717.03611200000000	45.51314500000000	0.24843500000000	0.00000000000000	0.10704900000000	0.00000000000000	0.00000000000000	0.00000000000000	0.00000000000000	0.00000000000000	0.00000000000000	0.00000000000000	19.62466500000000	0.00000000000000	0.00000000000000	0.00000000000000	0.00000000000000	
5.92165000000000	12.17457700000000	717.93614600000001	45.55980900000000	0.24781800000000	0.00000000000000	0.10699800000000	0.00000000000000	0.00000000000000	0.00000000000000	0.00000000000000	0.00000000000000	0.00000000000000	0.00000000000000	19.68055300000000	0.00000000000000	0.00000000000000	0.00000000000000	0.00000000000000	
5.92331100000000	11.82548400000000	718.84611299999995	45.60763200000000	0.24717500000000	0.00000000000000	0.10694700000000	0.00000000000000	0.00000000000000	0.00000000000000	0.00000000000000	0.00000000000000	0.00000000000000	0.00000000000000	19.73820600000000	0.00000000000000	0.00000000000000	0.00000000000000	0.00000000000000	
5.92498300000000	11.46854500000000	719.76455599999997	45.65649500000000	0.24650500000000	0.00000000000000	0.10689700000000	0.00000000000000	0.00000000000000	0.00000000000000	0.00000000000000	0.00000000000000	0.00000000000000	0.00000000000000	19.79753500000000	0.00000000000000	0.00000000000000	0.00000000000000	0.00000000000000	
5.92664300000000	11.10358400000000	720.69008799999995	45.70628800000000	0.24580600000000	0.00000000000000	0.10684900000000	0.00000000000000	0.00000000000000	0.00000000000000	0.00000000000000	0.00000000000000	0.00000000000000	0.00000000000000	19.85845500000000	0.00000000000000	0.00000000000000	0.00000000000000	0.00000000000000	
5.92831700000000	10.73045200000000	721.62139100000002	45.75690900000000	0.24507700000000	0.00000000000000	0.10680100000000	0.00000000000000	0.00000000000000	0.00000000000000	0.00000000000000	0.00000000000000	0.00000000000000	0.00000000000000	19.92088800000000	0.00000000000000	0.00000000000000	0.00000000000000	0.00000000000000	
5.92998300000000	10.34902600000000	722.55722100000003	45.80826700000000	0.24431900000000	0.00000000000000	0.10675500000000	0.00000000000000	0.00000000000000	0.00000000000000	0.00000000000000	0.00000000000000	0.00000000000000	0.00000000000000	19.98476300000000	0.00000000000000	0.00000000000000	0.00000000000000	0.00000000000000	
5.93164700000000	9.95921200000000	723.49640499999998	45.86027600000000	0.24353100000000	0.00000000000000	0.10670900000000	0.00000000000000	0.00000000000000	0.00000000000000	0.00000000000000	0.00000000000000	0.00000000000000	0.00000000000000	20.05001600000000	0.00000000000000	0.00000000000000	0.00000000000000	0.00000000000000	
5.93331100000000	9.56094200000000	724.43785100000002	45.91286200000000	0.24271200000000	0.00000000000000	0.10666500000000	0.00000000000000	0.00000000000000	0.00000000000000	0.00000000000000	0.00000000000000	0.00000000000000	0.00000000000000	20.11659100000000	0.00000000000000	0.00000000000000	0.00000000000000	0.00000000000000	
5.93497700000000	9.15417400000000	725.38054000000000	45.96595900000000	0.24186400000000	0.00000000000000	0.10662200000000	0.00000000000000	0.00000000000000	0.00000000000000	0.00000000000000	0.00000000000000	0.00000000000000	0.00000000000000	20.18443800000000	0.00000000000000	0.00000000000000	0.00000000000000	0.00000000000000	
5.93664900000000	8.73889300000000	726.32353499999999	46.01950800000000	0.24098500000000	0.00000000000000	0.10658000000000	0.00000000000000	0.00000000000000	0.00000000000000	0.00000000000000	0.00000000000000	0.00000000000000	0.00000000000000	20.25351300000000	0.00000000000000	0.00000000000000	0.00000000000000	0.00000000000000	
5.93831900000000	8.31510900000000	727.26597800000002	46.07346200000000	0.24007700000000	0.00000000000000	0.10653900000000	0.00000000000000	0.00000000000000	0.00000000000000	0.00000000000000	0.00000000000000	0.00000000000000	0.00000000000000	20.32378200000000	0.00000000000000	0.00000000000000	0.00000000000000	0.00000000000000	
5.93997600000000	7.88285700000000	728.20709399999998	46.12778000000000	0.23914100000000	0.00000000000000	0.10649900000000	0.00000000000000	0.00000000000000	0.00000000000000	0.00000000000000	0.00000000000000	0.00000000000000	0.00000000000000	20.39521500000000	0.00000000000000	0.00000000000000	0.00000000000000	0.00000000000000	
5.94164200000000	7.44219600000000	729.14618700000005	46.18243200000000	0.23817700000000	0.00000000000000	0.10646000000000	0.00000000000000	0.00000000000000	0.00000000000000	0.00000000000000	0.00000000000000	0.00000000000000	0.00000000000000	20.46778700000000	0.00000000000000	0.00000000000000	0.00000000000000	0.00000000000000	
5.94331600000000	6.99321000000000	730.08264199999996	46.23739600000000	0.23718500000000	0.00000000000000	0.10642200000000	0.00000000000000	0.00000000000000	0.00000000000000	0.00000000000000	0.00000000000000	0.00000000000000	0.00000000000000	20.54148300000000	0.00000000000000	0.00000000000000	0.00000000000000	0.00000000000000	
5.94497500000000	6.53600300000000	731.01592900000003	46.29266000000000	0.23616800000000	0.00000000000000	0.10638500000000	0.00000000000000	0.00000000000000	0.00000000000000	0.00000000000000	0.00000000000000	0.00000000000000	0.00000000000000	20.61628900000000	0.00000000000000	0.00000000000000	0.00000000000000	0.00000000000000	
5.94664600000000	6.07070500000000	731.94559600000002	46.34821800000000	0.23512700000000	0.00000000000000	0.10634900000000	0.00000000000000	0.00000000000000	0.00000000000000	0.00000000000000	0.00000000000000	0.00000000000000	0.00000000000000	20.69220000000000	0.00000000000000	0.00000000000000	0.00000000000000	0.00000000000000	
5.94831300000000	5.59746200000000	732.87127199999998	46.40407700000000	0.23406300000000	0.00000000000000	0.10631300000000	0.00000000000000	0.00000000000000	0.00000000000000	0.00000000000000	0.00000000000000	0.00000000000000	0.00000000000000	20.76921400000000	0.00000000000000	0.00000000000000	0.00000000000000	0.00000000000000	
5.94997600000000	5.11644400000000	733.79266700000005	46.46025000000000	0.23297700000000	0.00000000000000	0.10627800000000	0.00000000000000	0.00000000000000	0.00000000000000	0.00000000000000	0.00000000000000	0.00000000000000	0.00000000000000	20.84733300000000	0.00000000000000	0.00000000000000	0.00000000000000	0.00000000000000	
5.95164500000000	4.62783700000000	734.70956799999999	46.51676000000000	0.23187100000000	0.00000000000000	0.10624400000000	0.00000000000000	0.00000000000000	0.00000000000000	0.00000000000000	0.00000000000000	0.00000000000000	0.00000000000000	20.92656300000000	0.00000000000000	0.00000000000000	0.00000000000000	0.00000000000000	
5.95330800000000	4.13184800000000	735.62183700000003	46.57363900000000	0.23074800000000	0.00000000000000	0.10621000000000	0.00000000000000	0.00000000000000	0.00000000000000	0.00000000000000	0.00000000000000	0.00000000000000	0.00000000000000	21.00691300000000	0.00000000000000	0.00000000000000	0.00000000000000	0.00000000000000	
5.95497500000000	3.62869700000000	736.52941499999997	46.63092700000000	0.22960800000000	0.00000000000000	0.10617600000000	0.00000000000000	0.00000000000000	0.00000000000000	0.00000000000000	0.00000000000000	0.00000000000000	0.00000000000000	21.08839500000000	0.00000000000000	0.00000000000000	0.00000000000000	0.00000000000000	
5.95664300000000	3.11862400000000	737.43231200000002	46.68867500000000	0.22845400000000	0.00000000000000	0.10614200000000	0.00000000000000	0.00000000000000	0.00000000000000	0.00000000000000	0.00000000000000	0.00000000000000	0.00000000000000	21.17102300000000	0.00000000000000	0.00000000000000	0.00000000000000	0.00000000000000	
5.95830900000000	2.60187900000000	738.33060999999998	46.74694100000000	0.22728800000000	0.00000000000000	0.10610800000000	0.00000000000000	0.00000000000000	0.00000000000000	0.00000000000000	0.00000000000000	0.00000000000000	0.00000000000000	21.25481100000000	0.00000000000000	0.00000000000000	0.00000000000000	0.00000000000000	
5.95997500000000	2.07872900000000	739.22445700000003	46.80579100000000	0.22611200000000	0.00000000000000	0.10607400000000	0.00000000000000	0.00000000000000	0.00000000000000	0.00000000000000	0.00000000000000	0.00000000000000	0.00000000000000	21.33977500000000	0.00000000000000	0.00000000000000	0.00000000000000	0.00000000000000	
5.96164200000000	1.54945200000000	740.11406799999997	46.86530200000000	0.22492700000000	0.00000000000000	0.10604000000000	0.00000000000000	0.00000000000000	0.00000000000000	0.00000000000000	0.00000000000000	0.00000000000000	0.00000000000000	21.42593000000000	0.00000000000000	0.00000000000000	0.00000000000000	0.00000000000000	
5.96331600000000	1.01433700000000	740.99971500000004	46.92555700000000	0.22373700000000	0.00000000000000	0.10600500000000	0.00000000000000	0.00000000000000	0.00000000000000	0.00000000000000	0.00000000000000	0.00000000000000	0.00000000000000	21.51329100000000	0.00000000000000	0.00000000000000	0.00000000000000	0.00000000000000	
5.96498100000000	0.47368400000000	741.88173300000005	46.98665000000000	0.22254200000000	0.00000000000000	0.10596900000000	0.00000000000000	0.00000000000000	0.00000000000000	0.00000000000000	0.00000000000000	0.00000000000000	0.00000000000000	21.60187200000000	0.00000000000000	0.00000000000000	0.00000000000000	0.00000000000000	
5.96664900000000	-0.07219900000000	742.76050599999996	47.04868000000000	0.22134500000000	0.00000000000000	0.10593300000000	0.00000000000000	0.00000000000000	0.00000000000000	0.00000000000000	0.00000000000000	0.00000000000000	0.00000000000000	21.69168500000000	0.00000000000000	0.00000000000000	0.00000000000000	0.00000000000000	
5.96832500000000	-0.62299500000000	743.63647100000003	47.11175600000000	0.22014800000000	0.00000000000000	0.10589600000000	0.00000000000000	0.00000000000000	0.00000000000000	0.00000000000000	0.00000000000000	0.00000000000000	0.00000000000000	21.78273800000000	0.00000000000000	0.00000000000000	0.00000000000000	0.00000000000000	
